{"title":"Toy Story 3.2010.CAM.H264.FEEL-FREE","uid":5637983,"size":1161758352,"categoryP":"video","categoryS":"movies","magnet":"?xt=urn:btih:08e02cdaa6093544ae0ab45dbfce1bca3ebed629&amp;dn=Toy+Story+3.2010.CAM.H264.FEEL-FREE&amp;tr=udp%3A%2F%2Ftracker.openbittorrent.com%3A80&amp;tr=udp%3A%2F%2Fopen.demonii.com%3A1337&amp;tr=udp%3A%2F%2Ftracker.coppersurfer.tk%3A6969&amp;tr=udp%3A%2F%2Fexodus.desync.com%3A6969","seeders":0,"leechers":0,"uploader":"hiest","files":9,"time":1276966260,"description":"Language: English\nIMDb:http://www.imdb.com/title/tt0435761/\nSource Video:ELEKTRI4KA.Thanks\nSource Audio:Lu.Thanks\nEncoder: Tony2\n..............................................\nGeneral\nComplete name : Toy Story 3.2010.CAM.H264.FEEL-FREE\nFormat : MPEG-4\nFormat profile : Base Media\nCodec ID : isom\nFile size : 1.08 GiB\nDuration : 1h 34mn\nOverall bit rate : 1 643 Kbps\n...............................................\nVideo\nID : 2\nFormat : AVC\nFormat/Info : Advanced Video Codec\nFormat profile : &lt;a class=&quot;__cf_email__&quot; href=&quot;/cdn-cgi/l/email-protection&quot; data-cfemail=&quot;f3b19280969f9a9d96b3bfc2ddc0&quot;&gt;[email&amp;#160;protected]&lt;/a&gt;&lt;script cf-hash='f9e31' type=&quot;text/javascript&quot;&gt;\n/* &lt;![CDATA[ */!function(){try{var t=&quot;currentScript&quot;in document?document.currentScript:function(){for(var t=document.getElementsByTagName(&quot;script&quot;),e=t.length;e--;)if(t[e].getAttribute(&quot;cf-hash&quot;))return t[e]}();if(t&amp;&amp;t.previousSibling){var e,r,n,i,c=t.previousSibling,a=c.getAttribute(&quot;data-cfemail&quot;);if(a){for(e=&quot;&quot;,r=parseInt(a.substr(0,2),16),n=2;a.length-n;n+=2)i=parseInt(a.substr(n,2),16)^r,e+=String.fromCharCode(i);e=document.createTextNode(e),c.parentNode.replaceChild(e,c)}}}catch(u){}}();/* ]]&gt; */&lt;/script&gt;\nFormat settings, CABAC : No\nFormat settings, ReFrames : 1 frame\nCodec ID : avc1\nCodec ID/Info : Advanced Video Coding\nDuration : 1h 34mn\nBit rate mode : Variable\nBit rate : 1 511 Kbps\nWidth : 656 pixels\nHeight : 368 pixels\nDisplay aspect ratio : 16:9\nFrame rate mode : Constant\nFrame rate : 25.000 fps\nResolution : 24 bits\nColorimetry : 4:2:0\nScan type : Progressive\nBits/(Pixel*Frame) : 0.250\nStream size : 1 017 MiB (92%)\nLanguage : English\n...............................................\nAudio\nID : 1\nFormat : AAC\nFormat/Info : Advanced Audio Codec\nFormat version : Version 4\nFormat profile : LC\nFormat settings, SBR : No\nCodec ID : 40\nDuration : 1h 34mn\nBit rate mode : Constant\nBit rate : 128 Kbps\nChannel(s) : 2 channels\nChannel positions : L R\nSampling rate : 44.1 KHz\nResolution : 16 bits\nStream size : 86.1 MiB (8%)\nLanguage : English\n................................................\nPlot: \nWoody, Buzz, and the rest of their toy-box friends are dumped in a day-care center after their owner, Andy, departs for college.\n...................................................\nScreenshots: &lt;a href=&quot;\nhttp://postimg.com/image/17000/16637.jpg&quot; rel=&quot;nofollow&quot; target=&quot;_NEW&quot;&gt;\nhttp://postimg.com/image/17000/16637.jpg&lt;/a&gt; &lt;a href=&quot;\nhttp://postimg.com/image/17000/16638.jpg&quot; rel=&quot;nofollow&quot; target=&quot;_NEW&quot;&gt;\nhttp://postimg.com/image/17000/16638.jpg&lt;/a&gt; &lt;a href=&quot;\nhttp://postimg.com/image/17000/16639.jpg&quot; rel=&quot;nofollow&quot; target=&quot;_NEW&quot;&gt;\nhttp://postimg.com/image/17000/16639.jpg&lt;/a&gt;\n......................................................\n......................................................","torrent":{"xt":"urn:btih:08e02cdaa6093544ae0ab45dbfce1bca3ebed629","amp;dn":"Toy+Story+3.2010.CAM.H264.FEEL-FREE","amp;tr":["udp%3A%2F%2Ftracker.openbittorrent.com%3A80","udp%3A%2F%2Fopen.demonii.com%3A1337","udp%3A%2F%2Ftracker.coppersurfer.tk%3A6969","udp%3A%2F%2Fexodus.desync.com%3A6969"],"infoHash":"08e02cdaa6093544ae0ab45dbfce1bca3ebed629","infoHashBuffer":{"type":"Buffer","data":[8,224,44,218,166,9,53,68,174,10,180,93,191,206,27,202,62,190,214,41]},"announce":[],"urlList":[]}}